<?xml version="1.0" encoding="iso-8859-1"?>
<!-- Generator: Adobe Illustrator 19.0.0, SVG Export Plug-In . SVG Version: 6.00 Build 0)  -->
<svg xmlns="http://www.w3.org/2000/svg" xmlns:xlink="http://www.w3.org/1999/xlink" version="1.1" id="Layer_1" x="0px" y="0px" viewBox="0 0 512 512" style="enable-background:new 0 0 512 512;" xml:space="preserve">
<path style="fill:#E5E9EA;" d="M50.755,372.169l5.205,5.205l39.916,39.914l14.217,14.219l3.384,3.382l14.22,14.222l12.106,12.101  c1.048,1.048,2.211,1.9,3.451,2.568l-20.453,20.453c-26.252,26.252-68.814,26.252-95.066,0.002  c-26.25-26.251-26.25-68.814,0.002-95.066l20.451-20.453C48.86,369.955,49.709,371.122,50.755,372.169z"/>
<path style="fill:#D6CCC5;" d="M51.964,496.414c-26.25-26.252-26.25-68.814,0.002-95.066l13.983-13.985l-9.989-9.989l-5.205-5.205  c-1.046-1.048-1.895-2.215-2.566-3.451l-20.451,20.453c-26.252,26.251-26.252,68.814-0.002,95.065  c8.647,8.646,19.068,14.425,30.089,17.377C55.798,500.008,53.836,498.285,51.964,496.414z"/>
<path style="fill:#00A8E2;" d="M127.697,449.111l-14.22-14.222l-3.384-3.382l-14.217-14.219L55.96,377.374l-5.205-5.205  c-1.046-1.048-1.895-2.215-2.566-3.451l-20.451,20.453c-0.328,0.328-0.633,0.669-0.955,1.004l95.015,95.013  c0.335-0.318,0.677-0.625,1.004-0.953l20.453-20.453c-1.241-0.669-2.403-1.52-3.451-2.568L127.697,449.111z"/>
<path style="fill:#0CAFE8;" d="M45.48,408.87c1.949-2.624,4.107-5.141,6.487-7.522l13.983-13.985l-9.989-9.989l-5.205-5.205  c-1.046-1.048-1.895-2.215-2.566-3.451l-20.451,20.453c-0.328,0.328-0.634,0.671-0.954,1.004L45.48,408.87z"/>
<path style="fill:#F44321;" d="M50.758,351.116c5.813-5.813,15.235-5.815,21.051,0l5.205,5.203l39.914,39.914l14.219,14.222  l3.382,3.382l14.222,14.22l12.104,12.104c5.813,5.815,5.813,15.239,0,21.055c-5.813,5.813-15.239,5.813-21.053-0.002l-12.106-12.101  l-14.22-14.222l-3.384-3.382l-14.217-14.219L55.96,377.374l-5.205-5.205C44.943,366.354,44.943,356.929,50.758,351.116z"/>
<path style="fill:#D32D20;" d="M69.423,369.781c5.813-5.813,15.235-5.815,21.051,0l5.205,5.203l25.882,25.88l-3.556-3.556  l-39.914-39.914l-5.205-5.203c-5.815-5.815-15.237-5.813-21.051,0c-5.815,5.813-5.815,15.237-0.004,21.053l5.205,5.205  l12.372,12.371C63.609,385.007,63.612,375.591,69.423,369.781z"/>
<g>
	<path style="fill:#AEE6F4;" d="M329.682,359.907L188.53,425.728l-1.342-1.342l-23.373-23.375l287.22-202.227   c72.961,22.508,49.159,81.609,49.159,81.609l-144.747,67.499"/>
	<path style="fill:#AEE6F4;" d="M133.601,370.8l-22.633-22.633L313.197,60.949c0,0,67.068-11.561,77.059,60.773L137.391,374.591   L133.601,370.8z"/>
</g>
<path style="fill:#D0EDF4;" d="M86.254,323.455L231.585,11.787c0,0,59.102-23.803,81.612,49.161L110.968,348.167L86.254,323.455z"/>
<path style="fill:#AEE6F4;" d="M107.252,338.8L252.583,27.132c0,0,21.304-8.573,43.202,0.362  c-26.639-30.835-64.2-15.707-64.2-15.707L86.254,323.455l24.714,24.712l2.336-3.317L107.252,338.8z"/>
<path style="fill:#D0EDF4;" d="M163.24,400.44l-5.695-5.695l-20.155-20.153l252.865-252.869  c72.337,9.992,60.779,77.062,60.779,77.062L163.815,401.011L163.24,400.44z"/>
<g>
	<path style="fill:#231F20;" d="M77.52,345.405c-4.337-4.336-10.104-6.726-16.236-6.726c-6.133,0-11.899,2.389-16.234,6.725   c-5.744,5.742-7.784,13.791-6.161,21.192L22.026,383.46c-0.263,0.263-0.516,0.531-0.767,0.8l-0.296,0.314   c-0.014,0.015-0.026,0.031-0.04,0.045c-28.229,29.443-27.876,76.348,1.101,105.328C36.246,504.168,55.156,512,75.267,512   c19.58,0,38.004-7.441,52.089-20.953c0.001-0.001,0.002-0.002,0.003-0.002l0.28-0.262c0.3-0.281,0.6-0.562,0.873-0.836   l16.849-16.849c1.615,0.355,3.276,0.555,4.97,0.555c6.133,0,11.9-2.388,16.236-6.726c8.952-8.953,8.952-23.522,0-32.476   L77.52,345.405z M38.18,390.149l9.565-9.568l83.646,83.641l-9.569,9.568L38.18,390.149z M33.446,478.527   c-20.782-20.784-22.826-53.309-6.147-76.413l82.564,82.561c-10.008,7.249-21.998,11.172-34.595,11.172   C59.469,495.848,44.616,489.696,33.446,478.527z M155.145,455.504c-1.285,1.286-2.995,1.995-4.814,1.995   c-1.122,0-2.203-0.271-3.169-0.782c-0.026-0.014-0.05-0.032-0.075-0.046c-0.267-0.144-0.521-0.31-0.766-0.487   c-0.041-0.03-0.082-0.059-0.122-0.09c-0.241-0.183-0.473-0.379-0.687-0.593L56.467,366.46c-0.003-0.003-0.006-0.008-0.01-0.011   c-0.209-0.211-0.403-0.439-0.585-0.681c-0.03-0.04-0.058-0.08-0.087-0.12c-0.18-0.249-0.349-0.507-0.497-0.783   c-0.008-0.014-0.018-0.027-0.026-0.042c-1.357-2.573-0.954-5.836,1.208-7.998c1.286-1.287,2.996-1.996,4.814-1.996   s3.528,0.709,4.817,1.996l89.044,89.042C157.799,448.526,157.799,452.849,155.145,455.504z"/>
	<path style="fill:#231F20;" d="M505.929,230.992c-8.06-16.929-23.616-29.618-46.248-37.808c0.545-10.746-0.436-31.958-13.755-50.17   c-10.774-14.732-27.133-24.226-48.651-28.307c-4.403-23.268-15.099-40.447-31.878-51.087   c-14.891-9.444-31.145-11.425-42.157-11.425c-1.621,0-3.102,0.043-4.426,0.11C302.379,6.982,271.04,0,253.337,0   c-13.942,0-24.334,4.12-24.769,4.295c-1.9,0.765-3.436,2.223-4.303,4.078L78.933,320.042c-1.434,3.078-0.79,6.724,1.609,9.125   l24.714,24.712l26.411,26.412c0.003,0.003,0.006,0.008,0.011,0.012l26.435,26.431c0.003,0.003,0.006,0.005,0.01,0.009   l24.694,24.697c1.548,1.548,3.615,2.365,5.714,2.365c1.154,0,2.318-0.247,3.41-0.757l141.153-65.821   c4.043-1.884,5.792-6.69,3.908-10.733c-1.887-4.042-6.691-5.793-10.733-3.906l-136.028,63.431l-13.929-13.93l186.972-131.643   l89.097-62.731c19.422,6.668,32.494,16.769,38.887,30.062c7.207,14.984,4.099,30.547,2.34,36.778l-141.574,66.019   c-4.042,1.884-5.791,6.69-3.907,10.733c1.886,4.041,6.69,5.791,10.734,3.906l144.747-67.499c1.856-0.865,3.313-2.402,4.078-4.302   C508.121,282.333,518.176,256.718,505.929,230.992z M432.802,152.431c11.325,15.39,11.185,34.441,10.614,41.841L201.787,364.4   l-37.067,26.098l-15.908-15.905l244.25-244.254C410.984,133.511,424.341,140.934,432.802,152.431z M237.427,18.37   c3.257-0.925,9.034-2.217,15.91-2.217c23.932,0,41.052,14.611,50.931,43.451L109.89,335.67l-13.928-13.927L237.427,18.37z    M317.716,68.56c1.443-0.114,3.323-0.213,5.523-0.213c18.688,0,50.609,6.681,58.401,50.569L137.391,363.168l-15.908-15.908   L317.716,68.56z"/>
</g>
<g>
</g>
<g>
</g>
<g>
</g>
<g>
</g>
<g>
</g>
<g>
</g>
<g>
</g>
<g>
</g>
<g>
</g>
<g>
</g>
<g>
</g>
<g>
</g>
<g>
</g>
<g>
</g>
<g>
</g>
</svg>
