<?xml version="1.0" encoding="iso-8859-1"?>
<!-- Uploaded to: SVG Repo, www.svgrepo.com, Generator: SVG Repo Mixer Tools -->
<svg fill="#000000" height="800px" width="800px" version="1.1" id="Layer_1" xmlns="http://www.w3.org/2000/svg" xmlns:xlink="http://www.w3.org/1999/xlink" 
	 viewBox="0 0 507.001 507.001" xml:space="preserve">
<g>
	<g>
		<g>
			<path d="M461.589,105.853L359.18,2.946C357.302,1.061,354.752,0,352.091,0H154.909c-2.661,0-5.211,1.061-7.088,2.946
				L45.412,105.853c-1.865,1.874-2.912,4.41-2.912,7.054v286.188c0,2.73,1.116,5.342,3.09,7.229L148,504.23
				c1.86,1.778,4.336,2.771,6.91,2.771h197.182c2.574,0,5.05-0.993,6.91-2.771l102.409-97.906c1.974-1.887,3.09-4.498,3.09-7.229
				V112.906C464.5,110.263,463.453,107.727,461.589,105.853z M348.081,487H158.92L62.5,394.819V117.034L159.065,20h188.869
				l96.565,97.034v277.785h0.001L348.081,487z"/>
			<path d="M363.336,54.165c-3.886-3.886-10.179-3.906-14.091-0.051l-29.73,29.305H313.5V38c0-5.522-4.477-10-10-10h-100
				c-5.523,0-10,4.478-10,10v45.419h-5.889l-29.604-29.291c-3.91-3.87-10.213-3.854-14.104,0.037l-69,69
				c-3.886,3.887-3.908,10.18-0.049,14.093l29.315,29.725v202.693c0,2.648,1.05,5.188,2.92,7.063l69.34,69.506
				c1.876,1.881,4.423,2.938,7.08,2.938h139.983c2.654,0,5.2-1.056,7.076-2.934l69.418-69.506c1.873-1.875,2.924-4.416,2.924-7.066
				v-202.68l29.456-29.722c3.875-3.91,3.861-10.218-0.031-14.11L363.336,54.165z M213.5,48h80v35.419h-80V48z M96.066,130.286
				l54.945-54.945l18.316,18.122l-55.116,55.221L96.066,130.286z M382.911,181.154h-4.157c-5.523,0-10,4.478-10,10
				c0,5.522,4.477,10,10,10h4.157V256h-4.157c-5.523,0-10,4.478-10,10c0,5.522,4.477,10,10,10h4.157v54.846h-4.157
				c-5.523,0-10,4.478-10,10c0,5.522,4.477,10,10,10h4.157v14.691l-58.333,58.407v-3.856c0-5.522-4.477-10-10-10s-10,4.478-10,10
				v9.094H263.5v-9.094c0-5.522-4.477-10-10-10s-10,4.478-10,10v9.094h-41.077v-9.094c0-5.522-4.477-10-10-10
				c-5.523,0-10,4.478-10,10v3.847l-58.254-58.394v-14.695h4.079c5.523,0,10-4.478,10-10c0-5.522-4.477-10-10-10h-4.079V276h4.079
				c5.523,0,10-4.478,10-10c0-5.522-4.477-10-10-10h-4.079v-54.846h4.079c5.523,0,10-4.478,10-10c0-5.522-4.477-10-10-10h-4.079
				v-14.136l58.254-58.357v3.251c0,5.522,4.477,10,10,10c5.523,0,10-4.478,10-10v-8.493h1.077h40v8.493c0,5.522,4.477,10,10,10
				s10-4.478,10-10v-8.493h40h1.077v8.493c0,5.522,4.477,10,10,10s10-4.478,10-10v-3.369l25.252,25.313l33.081,33.161V181.154z
				 M392.887,148.699l-25.36-25.422l-29.728-29.799l18.415-18.15l54.94,54.939L392.887,148.699z"/>
			<path d="M299.983,136.758h-92.858c-2.586,0-5.072,1.002-6.936,2.796l-45.957,44.242c-1.958,1.885-3.064,4.486-3.064,7.204v150
				c0,2.694,1.087,5.275,3.016,7.157L200.141,393c1.868,1.822,4.374,2.843,6.984,2.843h92.777c2.608,0,5.112-1.019,6.98-2.839
				l46.008-44.843c1.931-1.882,3.02-4.465,3.02-7.161V191c0-2.717-1.105-5.317-3.063-7.202l-45.927-44.242
				C305.057,137.761,302.57,136.758,299.983,136.758z M335.909,207h-0.41c-5.523,0-10,4.478-10,10c0,5.522,4.477,10,10,10h0.41v29
				h-0.41c-5.523,0-10,4.478-10,10c0,5.522,4.477,10,10,10h0.41v29h-0.41c-5.523,0-10,4.478-10,10c0,5.522,4.477,10,10,10h0.41
				v11.782l-40.075,39.061h-84.639l-40.027-39.057V325h0.332c5.523,0,10-4.478,10-10c0-5.522-4.477-10-10-10h-0.332v-29h0.332
				c5.523,0,10-4.478,10-10c0-5.522-4.477-10-10-10h-0.332v-29h0.332c5.523,0,10-4.478,10-10c0-5.522-4.477-10-10-10h-0.332v-11.746
				l39.988-38.496h84.793l39.96,38.494V207z"/>
			<path d="M193.5,192v148c0,5.522,4.477,10,10,10h100c5.523,0,10-4.478,10-10V192c0-5.522-4.477-10-10-10h-100
				C197.977,182,193.5,186.478,193.5,192z M213.5,202h80v128h-80V202z"/>
			<path d="M273.5,208c-5.523,0-10,4.478-10,10v28c0,5.522,4.477,10,10,10s10-4.478,10-10v-28C283.5,212.478,279.023,208,273.5,208z
				"/>
			<path d="M271.5,301h-37c-5.523,0-10,4.478-10,10c0,5.522,4.477,10,10,10h37c5.523,0,10-4.478,10-10
				C281.5,305.478,277.023,301,271.5,301z"/>
			<path d="M234.5,291h16c5.523,0,10-4.478,10-10c0-5.522-4.477-10-10-10h-16c-5.523,0-10,4.478-10,10
				C224.5,286.522,228.977,291,234.5,291z"/>
			<path d="M235.5,261c5.523,0,10-4.478,10-10v-34c0-5.522-4.477-10-10-10s-10,4.478-10,10v34C225.5,256.522,229.977,261,235.5,261z
				"/>
		</g>
	</g>
</g>
</svg>